# xmcd
#
# Track frame offsets: 
#        182
#        20970
#        49397
#        63112
#        85745
#        105212
#        126557
#        143450
#        162842
#        183572
#        199097
#        223080
#        239775
#
# Disc length: 3402 seconds
#
# Revision: 3
# Processed by: cddbd v1.5.2PL0 Copyright (c) Steve Scherf et al.
# Submitted via: ExactAudioCopy v0.99pb4
#
DISCID=be0d480d
DTITLE=Magic Frankie - It's Magic
DYEAR=1989
DGENRE=
TTITLE0=Master Of The Blues
TTITLE1=Howlin' Wolf
TTITLE2=It Ain't Right
TTITLE3=Lose My Temper
TTITLE4=Steamin'
TTITLE5=Don't See No Love
TTITLE6=Wastin' Time
TTITLE7=Down South
TTITLE8=All By Myself
TTITLE9=That's What You Get
TTITLE10=Oh Lord!
TTITLE11=Crazy For My Baby
TTITLE12=Gettin' Hot
EXTD=
EXTT0=
EXTT1=
EXTT2=
EXTT3=
EXTT4=
EXTT5=
EXTT6=
EXTT7=
EXTT8=
EXTT9=
EXTT10=
EXTT11=
EXTT12=
PLAYORDER=
